<?xml version="1.0" standalone="no"?>
<!DOCTYPE svg PUBLIC "-//W3C//DTD SVG 20010904//EN"
 "http://www.w3.org/TR/2001/REC-SVG-20010904/DTD/svg10.dtd">
<svg version="1.0" xmlns="http://www.w3.org/2000/svg"
 width="301.000000pt" height="301.000000pt" viewBox="0 0 301.000000 301.000000"
 preserveAspectRatio="xMidYMid meet">
<metadata>
Created by potrace 1.11, written by Peter Selinger 2001-2013
</metadata>
<g transform="translate(0.000000,301.000000) scale(0.100000,-0.100000)"
fill="#000000" stroke="none">
<path d="M1407 3004 c-1 -1 -29 -5 -62 -8 -126 -12 -198 -28 -330 -73 -340
-117 -620 -346 -804 -658 -42 -70 -61 -110 -116 -240 -7 -16 -23 -65 -35 -108
-23 -83 -23 -86 -35 -157 -4 -25 -9 -54 -12 -65 -8 -38 -10 -274 -2 -342 14
-115 17 -135 39 -218 132 -513 529 -923 1038 -1070 47 -14 107 -28 132 -31 25
-3 48 -8 51 -10 11 -7 165 -17 249 -17 79 0 185 9 220 18 8 3 31 7 50 10 395
64 799 352 1011 720 127 220 203 501 202 750 0 51 -14 228 -18 235 -2 3 -6 25
-10 49 -3 24 -17 82 -31 130 -166 580 -675 1012 -1269 1077 -60 6 -263 13
-268 8z"/>
</g>
</svg>
