<?xml version="1.0" standalone="no"?>
<!DOCTYPE svg PUBLIC "-//W3C//DTD SVG 20010904//EN"
 "http://www.w3.org/TR/2001/REC-SVG-20010904/DTD/svg10.dtd">
<svg version="1.0" xmlns="http://www.w3.org/2000/svg"
 width="2273.000000pt" height="2273.000000pt" viewBox="0 0 2273.000000 2273.000000"
 preserveAspectRatio="xMidYMid meet">
<metadata>
Created by potrace 1.14, written by Peter Selinger 2001-2017
</metadata>
<g transform="translate(0.000000,2273.000000) scale(0.100000,-0.100000)"
fill="#000000" stroke="none">
<path d="M6040 18508 c-135 -159 -352 -417 -484 -572 -131 -154 -255 -301
-276 -326 -32 -38 -173 -205 -384 -455 -28 -33 -53 -62 -56 -65 -6 -5 -249
-292 -414 -489 -49 -58 -110 -131 -136 -161 -36 -42 -1118 -1320 -1383 -1634
-23 -27 -54 -63 -68 -80 -126 -147 -295 -348 -454 -536 -104 -124 -199 -236
-211 -250 -12 -14 -66 -77 -119 -140 -54 -63 -117 -137 -140 -165 -24 -27 -98
-115 -165 -195 -67 -80 -142 -168 -166 -196 -23 -28 -235 -277 -469 -555 -235
-277 -437 -515 -448 -529 -45 -52 -133 -155 -152 -179 -11 -13 -24 -29 -30
-35 -5 -6 -32 -38 -60 -71 -27 -33 -52 -62 -55 -65 -5 -4 -49 -56 -185 -219
-11 -13 -25 -29 -30 -35 -6 -6 -43 -50 -84 -98 l-73 -88 79 -92 c43 -51 118
-140 168 -198 50 -58 110 -130 135 -160 43 -52 59 -70 161 -191 26 -29 300
-353 609 -719 309 -366 574 -678 589 -695 14 -16 73 -86 131 -155 58 -69 117
-138 132 -155 14 -16 68 -80 120 -141 124 -148 369 -436 383 -450 5 -6 28 -33
50 -59 91 -110 328 -390 334 -395 4 -3 17 -18 30 -35 12 -16 42 -52 66 -80 23
-27 125 -147 225 -265 100 -118 192 -226 203 -240 12 -14 83 -97 157 -185 74
-88 163 -194 199 -235 86 -101 88 -103 236 -280 72 -85 132 -157 135 -160 3
-3 30 -34 60 -70 30 -36 57 -67 60 -70 3 -3 39 -45 80 -95 41 -49 77 -92 80
-95 3 -3 55 -63 115 -135 59 -71 111 -132 114 -135 4 -3 38 -43 76 -90 38 -47
72 -87 75 -90 7 -7 265 -310 340 -400 25 -30 59 -70 76 -90 17 -19 40 -46 52
-60 25 -30 198 -236 257 -305 23 -27 98 -115 165 -195 68 -80 142 -167 165
-195 96 -112 183 -215 224 -265 25 -29 50 -58 55 -64 6 -6 44 -50 85 -98 l73
-88 2215 3 2216 2 104 270 c57 149 124 324 149 390 25 66 50 129 55 140 10 23
271 701 304 790 26 69 158 411 209 542 19 48 114 295 211 548 97 253 191 498
210 545 18 47 63 164 99 260 37 96 71 186 77 200 6 14 89 230 185 480 96 250
179 466 185 480 10 23 72 182 359 930 298 776 556 1445 595 1545 24 61 95 245
158 410 64 165 219 570 347 900 127 330 312 812 411 1070 100 259 186 484 193
500 7 17 121 310 252 652 131 343 241 622 244 622 3 0 88 -100 190 -221 251
-299 237 -282 314 -372 120 -141 149 -177 331 -391 97 -115 196 -232 219 -260
24 -27 83 -97 132 -155 49 -58 103 -121 119 -141 65 -78 239 -284 245 -289 3
-3 25 -30 50 -60 25 -30 47 -57 51 -60 4 -4 111 -129 336 -396 23 -27 50 -59
60 -70 10 -12 36 -43 58 -70 34 -41 107 -127 199 -234 11 -14 44 -52 71 -85
28 -33 52 -62 55 -65 3 -3 28 -32 55 -65 28 -33 52 -62 55 -65 3 -3 41 -48 85
-100 44 -52 82 -97 85 -100 3 -3 52 -61 110 -130 57 -69 107 -127 110 -130 3
-3 41 -48 85 -100 44 -52 82 -97 85 -100 3 -3 27 -32 55 -65 27 -33 55 -66 62
-73 7 -7 13 -18 13 -24 0 -9 -95 -125 -321 -393 -48 -57 -462 -550 -488 -580
-9 -11 -88 -105 -177 -210 -88 -104 -188 -224 -223 -265 -35 -41 -129 -154
-209 -250 -81 -96 -149 -177 -152 -180 -3 -3 -50 -59 -104 -125 -55 -66 -104
-124 -110 -130 -6 -5 -78 -91 -161 -190 -82 -99 -160 -191 -171 -205 -12 -14
-99 -117 -194 -230 -95 -113 -182 -216 -194 -230 -11 -14 -66 -79 -121 -145
-55 -66 -105 -126 -112 -133 -7 -7 -29 -34 -50 -60 -21 -26 -40 -49 -44 -52
-3 -3 -52 -61 -109 -130 -58 -69 -110 -130 -115 -136 -6 -6 -27 -31 -46 -54
-18 -23 -39 -47 -44 -54 -6 -6 -35 -41 -65 -77 -30 -36 -138 -164 -240 -285
-101 -120 -243 -289 -314 -374 -71 -85 -144 -171 -160 -190 -17 -20 -49 -57
-71 -84 -22 -27 -45 -54 -50 -60 -6 -6 -30 -36 -55 -66 -25 -30 -50 -59 -56
-65 -6 -5 -28 -32 -50 -60 -21 -27 -42 -52 -45 -55 -3 -3 -67 -77 -140 -165
-74 -88 -182 -216 -239 -285 -58 -69 -109 -130 -115 -136 -5 -6 -26 -31 -46
-55 -21 -24 -306 -363 -634 -754 -329 -390 -618 -735 -644 -765 -25 -30 -48
-57 -51 -60 -3 -3 -29 -34 -59 -70 -30 -36 -61 -73 -69 -82 -14 -17 91 -18
2186 -18 l2200 0 194 228 c106 125 200 236 209 247 15 18 146 172 259 305 47
56 101 120 160 190 25 29 57 67 72 84 14 17 79 94 144 171 65 77 168 199 229
270 61 72 160 189 220 260 60 72 137 162 170 200 33 39 78 92 100 119 22 26
45 53 50 59 6 7 35 41 65 77 80 94 86 101 216 255 66 77 168 199 229 270 60
72 112 132 115 135 3 3 39 45 80 95 41 49 85 101 97 115 11 14 65 77 118 140
54 63 117 138 140 165 24 28 235 277 470 555 235 278 439 519 454 535 14 17
44 53 66 80 22 28 45 55 51 60 6 6 148 172 315 370 167 198 311 369 321 380
18 21 190 225 397 469 69 82 166 197 215 255 49 58 103 122 120 141 17 19 65
76 106 125 41 50 84 101 96 115 46 53 224 263 344 405 69 81 168 198 220 260
213 251 235 277 242 289 4 8 -4 25 -20 42 -16 16 -88 101 -162 189 -130 156
-204 242 -300 355 -26 30 -161 190 -301 355 -249 295 -580 686 -622 735 -32
37 -106 124 -237 280 -297 352 -360 427 -411 484 -19 23 -63 76 -98 118 -35
42 -66 78 -69 80 -4 2 -33 35 -64 73 -31 39 -65 79 -75 90 -10 11 -40 47 -68
80 -27 33 -52 62 -55 65 -3 3 -39 46 -80 95 -41 50 -77 92 -80 95 -3 3 -30 34
-60 70 -30 35 -65 76 -76 90 -12 14 -54 63 -94 110 -86 103 -126 150 -216 256
-77 89 -122 143 -214 254 -34 41 -65 77 -69 80 -3 3 -26 30 -51 60 -25 30 -47
57 -50 60 -3 3 -41 48 -85 100 -44 52 -82 97 -85 100 -3 3 -39 45 -80 95 -41
49 -87 103 -101 120 -35 40 -204 239 -254 299 -22 27 -50 60 -63 75 -13 14
-37 43 -55 64 -18 22 -40 49 -50 60 -11 12 -33 39 -50 61 -18 21 -37 44 -44
51 -10 11 -79 92 -183 215 -25 29 -49 58 -55 64 -5 6 -57 67 -115 136 -57 69
-132 157 -165 195 -33 39 -80 95 -105 124 -25 30 -49 59 -55 65 -5 6 -32 38
-60 71 -27 33 -59 71 -70 84 -11 13 -25 29 -30 35 -16 17 -276 324 -310 365
-34 41 -434 514 -534 631 -71 83 -84 99 -156 185 -27 33 -63 74 -79 92 l-29
33 -2196 0 -2196 0 -149 -388 c-82 -213 -172 -448 -201 -522 -29 -74 -117
-301 -195 -505 -78 -203 -157 -408 -175 -455 -19 -47 -59 -152 -90 -235 -31
-82 -60 -159 -66 -170 -8 -20 -108 -277 -673 -1750 -152 -396 -282 -731 -287
-745 -13 -28 -311 -802 -369 -955 -21 -55 -176 -458 -344 -895 -251 -648 -725
-1881 -931 -2415 -23 -60 -61 -159 -84 -220 -23 -60 -46 -119 -50 -130 -5 -11
-17 -40 -26 -65 -9 -25 -127 -331 -262 -680 -135 -349 -289 -751 -344 -893
-54 -142 -103 -265 -107 -274 -7 -12 -17 -5 -48 34 -21 27 -60 74 -86 104 -25
30 -75 88 -110 129 -34 41 -65 77 -68 80 -3 3 -25 30 -50 60 -25 30 -48 57
-51 60 -3 3 -30 34 -60 70 -29 36 -63 76 -75 90 -12 14 -62 72 -111 130 -217
256 -389 459 -428 505 -23 28 -84 100 -136 161 -52 61 -112 133 -134 159 -22
27 -49 59 -60 71 -22 24 -18 20 -165 194 -57 69 -107 127 -110 130 -3 3 -25
30 -50 60 -25 30 -47 57 -50 60 -9 9 -73 83 -120 140 -25 29 -101 119 -168
199 -68 80 -131 155 -141 166 -29 35 -751 887 -796 940 -149 176 -245 291
-245 297 0 4 6 13 13 20 6 7 61 72 121 143 59 72 120 144 135 161 29 34 35 42
280 334 95 113 180 214 189 225 9 11 52 63 96 115 43 52 81 97 85 100 3 3 23
26 44 52 21 26 43 53 50 60 7 7 30 35 52 63 22 27 47 57 55 66 8 9 31 36 51
60 21 24 54 65 75 90 22 25 59 69 84 99 25 30 61 72 80 95 19 23 53 63 75 90
22 27 45 53 50 59 6 6 80 94 165 196 85 102 164 196 176 210 12 14 80 95 150
180 71 85 131 157 134 160 6 5 105 122 131 155 19 22 89 106 122 145 12 14 66
79 121 145 55 66 102 122 106 125 3 3 39 46 80 95 41 50 77 92 80 95 3 3 25
30 50 60 25 30 47 57 50 60 3 3 52 61 110 130 193 232 313 375 349 416 20 22
50 58 68 80 17 21 39 49 50 60 10 12 36 43 58 70 22 26 116 138 208 249 370
440 431 512 467 555 21 25 75 90 121 145 46 55 86 102 89 105 3 3 62 73 130
155 69 83 127 152 130 155 3 3 51 59 105 125 55 66 102 122 105 125 3 3 39 46
80 95 41 50 80 95 85 101 6 6 28 33 50 60 22 26 56 66 75 89 19 23 53 63 75
89 22 27 45 54 50 60 6 6 55 65 110 131 55 66 102 122 105 125 3 3 50 59 105
125 55 66 102 122 105 125 3 3 77 91 165 195 88 105 206 245 263 313 l103 122
-2203 0 -2203 -1 -245 -291z"/>
</g>
</svg>
